[Header]
FileType HTR
DataType HTRS
FileVersion 1
NumSegments 64
NumFrames 4
DataFrameRate 30
EulerRotationOrder ZYX
CalibrationUnits mm
RotationUnits Degrees
GlobalAxisofGravity Y
BoneLengthAxis Y
ScaleFactor 1.0
[SegmentNames&Hierarchy]
Hips	GLOBAL
Spine	Hips
Spine1	Spine
Spine2	Spine1
Neck	Spine2
Head	Neck
LeftEye	Head
RightEye	Head
LeftShoulder	Spine2
LeftArm	LeftShoulder
LeftForeArm	LeftArm
LeftHand	LeftForeArm
LeftHandThumb1	LeftHand
LeftHandThumb2	LeftHandThumb1
LeftHandThumb3	LeftHandThumb2
LeftHandThumb4	LeftHandThumb3
LeftHandIndex1	LeftHand
LeftHandIndex2	LeftHandIndex1
LeftHandIndex3	LeftHandIndex2
LeftHandIndex4	LeftHandIndex3
LeftHandMiddle1	LeftHand
LeftHandMiddle2	LeftHandMiddle1
LeftHandMiddle3	LeftHandMiddle2
LeftHandMiddle4	LeftHandMiddle3
LeftHandRing1	LeftHand
LeftHandRing2	LeftHandRing1
LeftHandRing3	LeftHandRing2
LeftHandRing4	LeftHandRing3
LeftHandPinky1	LeftHand
LeftHandPinky2	LeftHandPinky1
LeftHandPinky3	LeftHandPinky2
LeftHandPinky4	LeftHandPinky3
RightShoulder	Spine2
RightArm	RightShoulder
RightForeArm	RightArm
RightHand	RightForeArm
RightHandPinky1	RightHand
RightHandPinky2	RightHandPinky1
RightHandPinky3	RightHandPinky2
RightHandPinky4	RightHandPinky3
RightHandRing1	RightHand
RightHandRing2	RightHandRing1
RightHandRing3	RightHandRing2
RightHandRing4	RightHandRing3
RightHandMiddle1	RightHand
RightHandMiddle2	RightHandMiddle1
RightHandMiddle3	RightHandMiddle2
RightHandMiddle4	RightHandMiddle3
RightHandIndex1	RightHand
RightHandIndex2	RightHandIndex1
RightHandIndex3	RightHandIndex2
RightHandIndex4	RightHandIndex3
RightHandThumb1	RightHand
RightHandThumb2	RightHandThumb1
RightHandThumb3	RightHandThumb2
RightHandThumb4	RightHandThumb3
LeftUpLeg	Hips
LeftLeg	LeftUpLeg
LeftFoot	LeftLeg
LeftToeBase	LeftFoot
RightUpLeg	Hips
RightLeg	RightUpLeg
RightFoot	RightLeg
RightToeBase	RightFoot
[BasePosition]
Hips	0	0	0	0	0	0	1
Spine	0	0	0	0	0	0	1
Spine1	0	0	0	0	0	0	1
Spine2	0	0	0	0	0	0	1
Neck	0	0	0	0	0	0	1
Head	0	0	0	0	0	0	1
LeftEye	0	0	0	0	0	0	1
RightEye	0	0	0	0	0	0	1
LeftShoulder	0	0	0	0	0	0	1
LeftArm	0	0	0	0	0	0	1
LeftForeArm	0	0	0	0	0	0	1
LeftHand	0	0	0	0	0	0	1
LeftHandThumb1	0	0	0	0	0	0	1
LeftHandThumb2	0	0	0	0	0	0	1
LeftHandThumb3	0	0	0	0	0	0	1
LeftHandThumb4	0	0	0	0	0	0	1
LeftHandIndex1	0	0	0	0	0	0	1
LeftHandIndex2	0	0	0	0	0	0	1
LeftHandIndex3	0	0	0	0	0	0	1
LeftHandIndex4	0	0	0	0	0	0	1
LeftHandMiddle1	0	0	0	0	0	0	1
LeftHandMiddle2	0	0	0	0	0	0	1
LeftHandMiddle3	0	0	0	0	0	0	1
LeftHandMiddle4	0	0	0	0	0	0	1
LeftHandRing1	0	0	0	0	0	0	1
LeftHandRing2	0	0	0	0	0	0	1
LeftHandRing3	0	0	0	0	0	0	1
LeftHandRing4	0	0	0	0	0	0	1
LeftHandPinky1	0	0	0	0	0	0	1
LeftHandPinky2	0	0	0	0	0	0	1
LeftHandPinky3	0	0	0	0	0	0	1
LeftHandPinky4	0	0	0	0	0	0	1
RightShoulder	0	0	0	0	0	0	1
RightArm	0	0	0	0	0	0	1
RightForeArm	0	0	0	0	0	0	1
RightHand	0	0	0	0	0	0	1
RightHandPinky1	0	0	0	0	0	0	1
RightHandPinky2	0	0	0	0	0	0	1
RightHandPinky3	0	0	0	0	0	0	1
RightHandPinky4	0	0	0	0	0	0	1
RightHandRing1	0	0	0	0	0	0	1
RightHandRing2	0	0	0	0	0	0	1
RightHandRing3	0	0	0	0	0	0	1
RightHandRing4	0	0	0	0	0	0	1
RightHandMiddle1	0	0	0	0	0	0	1
RightHandMiddle2	0	0	0	0	0	0	1
RightHandMiddle3	0	0	0	0	0	0	1
RightHandMiddle4	0	0	0	0	0	0	1
RightHandIndex1	0	0	0	0	0	0	1
RightHandIndex2	0	0	0	0	0	0	1
RightHandIndex3	0	0	0	0	0	0	1
RightHandIndex4	0	0	0	0	0	0	1
RightHandThumb1	0	0	0	0	0	0	1
RightHandThumb2	0	0	0	0	0	0	1
RightHandThumb3	0	0	0	0	0	0	1
RightHandThumb4	0	0	0	0	0	0	1
LeftUpLeg	0	0	0	0	0	0	1
LeftLeg	0	0	0	0	0	0	1
LeftFoot	0	0	0	0	0	0	1
LeftToeBase	0	0	0	0	0	0	1
RightUpLeg	0	0	0	0	0	0	1
RightLeg	0	0	0	0	0	0	1
RightFoot	0	0	0	0	0	0	1
RightToeBase	0	0	0	0	0	0	1
[Hips]
448	434.8592529	959.5930176	-183.4863586	-17.19788361	-27.82894325	-344.2361755	1.0
449	430.5018616	970.1464233	-179.2192993	-14.76116562	-30.43628693	-346.3886108	1.0
450	423.3104858	984.6586914	-176.7240601	-10.25300026	-32.6266861	-352.6372681	1.0
451	410.6255493	995.0635986	-179.1210785	-6.474261284	-32.94226074	-358.7670898	1.0
[Spine]
448	0	101.8159943	1.315000057	16.42361259	7.762420654	-13.28656197	1.0
449	0	101.8159943	1.315000057	14.32414246	11.65981674	-4.398653507	1.0
450	0	101.8159943	1.315000057	12.44113064	14.62807751	6.288372993	1.0
451	0	101.8159943	1.315000057	12.17162418	17.00703239	12.10789776	1.0
[Spine1]
448	0	100.8349991	-10.00800037	0.9088457823	0.8704396486	-1.711199999	1.0
449	0	100.8349991	-10.00800037	1.691102505	1.764854908	-4.490539074	1.0
450	0	100.8349991	-10.00800037	2.389345884	2.46535182	-6.023959637	1.0
451	0	100.8349991	-10.00800037	2.207925797	2.82423377	-5.349730968	1.0
[Spine2]
448	0	91	-13.73399925	0.9149999619	0.8394358158	-1.727398753	1.0
449	0	91	-13.73399925	1.786558867	1.670125127	-4.488256931	1.0
450	0	91	-13.73399925	2.600722551	2.344661713	-5.982723713	1.0
451	0	91	-13.73399925	2.4567101	2.712845087	-5.295721531	1.0
[Neck]
448	0	166.7169952	-25.16200066	-5.59309864	3.370974779	-3.019263744	1.0
449	0	166.7169952	-25.16200066	-5.670734882	4.569310665	-3.884050846	1.0
450	0	166.7169952	-25.16200066	-4.742245674	5.751170635	-5.026544094	1.0
451	0	166.7169952	-25.16200066	-3.941007376	6.810712337	-6.044849396	1.0
[Head]
448	0	96.17900085	16.84999847	3.434856653	12.92854404	2.229934931	1.0
449	0	96.17900085	16.84999847	2.762783051	18.07265854	1.604874015	1.0
450	0	96.17900085	16.84999847	2.78134656	22.70995331	0.2539518178	1.0
451	0	96.17900085	16.84999847	4.360979557	26.71678734	-0.7794902325	1.0
[LeftEye]
448	30.6760006	64.09500122	92.83599854	0	0	0	1.0
449	30.6760006	64.09500122	92.83599854	0	0	0	1.0
450	30.6760006	64.09500122	92.83599854	0	0	0	1.0
451	30.6760006	64.09500122	92.83599854	0	0	0	1.0
[RightEye]
448	-30.6760006	64.09500122	92.83499908	0	0	0	1.0
449	-30.6760006	64.09500122	92.83499908	0	0	0	1.0
450	-30.6760006	64.09500122	92.83499908	0	0	0	1.0
451	-30.6760006	64.09500122	92.83499908	0	0	0	1.0
[LeftShoulder]
448	45.70400238	109.4599991	-26.28000069	0.5282518864	1.699301958	-22.85233688	1.0
449	45.70400238	109.4599991	-26.28000069	0.1026369855	3.143252611	-23.5453949	1.0
450	45.70400238	109.4599991	-26.28000069	-0.4314870238	4.938168526	-24.04571724	1.0
451	45.70400238	109.4599991	-26.28000069	-1.433629751	8.438840866	-22.5817318	1.0
[LeftArm]
448	105.923996	-5.24600029	-22.32099915	44.35538101	-12.12336922	-28.86221313	1.0
449	105.923996	-5.24600029	-22.32099915	40.6281929	-3.670219183	-29.21777534	1.0
450	105.923996	-5.24600029	-22.32099915	30.32108879	9.382994652	-29.11636543	1.0
451	105.923996	-5.24600029	-22.32099915	17.82988548	24.83769417	-29.9926033	1.0
[LeftForeArm]
448	278.414978	-0.0009999999311	0	-1.274773126e-06	-25.49544716	-0.0002139068529	1.0
449	278.414978	-0.0009999999311	0	7.638765055e-06	-24.84292793	-0.0002253343409	1.0
450	278.414978	-0.0009999999311	0	2.613953484e-06	-29.13129997	-0.0002136284456	1.0
451	278.414978	-0.0009999999311	0	-4.227340014e-06	-38.56722641	-0.0001934487809	1.0
[LeftHand]
448	283.2879944	0	0	13.39459705	20.47904968	21.81014442	1.0
449	283.2879944	0	0	15.48489761	19.26174736	21.66613197	1.0
450	283.2879944	0	0	19.59624672	17.7800808	22.08918762	1.0
451	283.2879944	0	0	24.03972435	16.99296188	22.17789459	1.0
[LeftHandThumb1]
448	24.6609993	-15.75	26.8239994	0.8203371167	7.726241589	9.835163116	1.0
449	24.6609993	-15.75	26.8239994	0.6260611415	8.21077919	10.44854641	1.0
450	24.6609993	-15.75	26.8239994	0.4457885623	8.847496033	10.20275116	1.0
451	24.6609993	-15.75	26.8239994	0.3766219914	9.399269104	8.913149834	1.0
[LeftHandThumb2]
448	32.29800034	-18.64699936	18.64699936	1.303909063	-0.03982338682	-1.010679245	1.0
449	32.29800034	-18.64699936	18.64699936	1.222764373	-0.1871627122	-1.035323143	1.0
450	32.29800034	-18.64699936	18.64699936	1.182506561	-0.1915984601	-1.01388371	1.0
451	32.29800034	-18.64699936	18.64699936	1.134167314	-0.175665766	-0.9906829	1.0
[LeftHandThumb3]
448	26.52600098	-15.31499958	15.31499958	-2.416201115	-1.364183426	3.058560848	1.0
449	26.52600098	-15.31499958	15.31499958	-2.651253223	-1.772007346	3.1105299	1.0
450	26.52600098	-15.31499958	15.31499958	-2.893301964	-2.222420931	3.171569586	1.0
451	26.52600098	-15.31499958	15.31499958	-3.096104145	-2.642163277	3.229753256	1.0
[LeftHandThumb4]
448	19.54599953	-11.28499985	11.28499985	0	0	0	1.0
449	19.54599953	-11.28499985	11.28499985	0	0	0	1.0
450	19.54599953	-11.28499985	11.28499985	0	0	0	1.0
451	19.54599953	-11.28499985	11.28499985	0	0	0	1.0
[LeftHandIndex1]
448	91.09299469	-5.170999527	22.60099792	0.02609647624	-12.92128658	10.44068241	1.0
449	91.09299469	-5.170999527	22.60099792	-0.0008401290979	-12.42711926	11.11570835	1.0
450	91.09299469	-5.170999527	22.60099792	0.01035702787	-11.41535187	9.758938789	1.0
451	91.09299469	-5.170999527	22.60099792	0.05566475913	-9.86384201	5.76594305	1.0
[LeftHandIndex2]
448	36.76399994	0	0	-7.727181583e-06	3.272124104e-06	-1.472781423e-05	1.0
449	36.76399994	0	0	-8.244865967e-06	1.890039925e-06	-9.844268789e-05	1.0
450	36.76399994	0	0	-4.411000191e-06	1.620457806e-05	-0.0002079437545	1.0
451	36.76399994	0	0	-4.890647233e-06	3.116098742e-05	-0.0002129098139	1.0
[LeftHandIndex3]
448	28.83100128	0	0	-0.07774110138	1.031913877	-8.616627693	1.0
449	28.83100128	0	0	-0.07494429499	1.013244152	-8.459544182	1.0
450	28.83100128	0	0	-0.07227122784	0.9950954318	-8.307044029	1.0
451	28.83100128	0	0	-0.06971843541	0.97747612	-8.158849716	1.0
[LeftHandIndex4]
448	23.92700005	0	0	0	0	0	1.0
449	23.92700005	0	0	0	0	0	1.0
450	23.92700005	0	0	0	0	0	1.0
451	23.92700005	0	0	0	0	0	1.0
[LeftHandMiddle1]
448	95.33399963	0	0	-0.0444512479	-1.971209645	6.670500278	1.0
449	95.33399963	0	0	-0.021206595	-1.220678449	4.644159317	1.0
450	95.33399963	0	0	-0.001371549442	-0.1853178591	1.237282515	1.0
451	95.33399963	0	0	-0.01242880989	1.116501093	-3.78189826	1.0
[LeftHandMiddle2]
448	36.98199844	0	0	4.203515346e-06	-5.507290916e-05	-5.1981242e-05	1.0
449	36.98199844	0	0	4.838349196e-05	-0.005344704725	0.04396254569	1.0
450	36.98199844	0	0	2.674768075e-05	0.0123237744	-0.102893576	1.0
451	36.98199844	0	0	-0.000875493628	0.1101238057	-0.9160680771	1.0
[LeftHandMiddle3]
448	29.50900078	0	0	-0.06313736737	0.9306693077	-7.765707016	1.0
449	29.50900078	0	0	-0.07773116976	1.031200647	-8.610972404	1.0
450	29.50900078	0	0	-0.09696982801	1.151409626	-9.623888969	1.0
451	29.50900078	0	0	-0.1170212775	1.264122248	-10.57647038	1.0
[LeftHandMiddle4]
448	28.3390007	0	0	0	0	0	1.0
449	28.3390007	0	0	0	0	0	1.0
450	28.3390007	0	0	0	0	0	1.0
451	28.3390007	0	0	0	0	0	1.0
[LeftHandRing1]
448	91.04499817	-0.4390000105	-18.65100098	-0.0247005038	5.239565849	7.98500967	1.0
449	91.04499817	-0.4390000105	-18.65100098	0.04676714167	6.803479671	2.798779488	1.0
450	91.04499817	-0.4390000105	-18.65100098	0.05729755387	8.567668915	-3.435398102	1.0
451	91.04499817	-0.4390000105	-18.65100098	-0.0287732482	10.42854881	-10.63608456	1.0
[LeftHandRing2]
448	31.54000092	0	0	0.001093798317	-0.02157645486	0.1795826852	1.0
449	31.54000092	0	0	-0.00341002713	0.1609100103	-1.338552356	1.0
450	31.54000092	0	0	-0.02298641019	0.555588305	-4.627244473	1.0
451	31.54000092	0	0	-0.06466832012	0.9415918589	-7.857381344	1.0
[LeftHandRing3]
448	29.37700081	0	0	-0.07126577199	0.9879710674	-8.247110367	1.0
449	29.37700081	0	0	-0.08685526997	1.090505123	-9.110050201	1.0
450	29.37700081	0	0	-0.105320029	1.19971621	-10.0318222	1.0
451	29.37700081	0	0	-0.1280065328	1.321628928	-11.06373787	1.0
[LeftHandRing4]
448	26.47500038	0	0	0	0	0	1.0
449	26.47500038	0	0	0	0	0	1.0
450	26.47500038	0	0	0	0	0	1.0
451	26.47500038	0	0	0	0	0	1.0
[LeftHandPinky1]
448	80.77799988	-4.887000084	-38.06099701	0.187536329	18.4498558	15.74519348	1.0
449	80.77799988	-4.887000084	-38.06099701	0.4865968227	20.99102592	6.311923981	1.0
450	80.77799988	-4.887000084	-38.06099701	0.5845984221	23.67246819	-4.136550426	1.0
451	80.77799988	-4.887000084	-38.06099701	0.4202188849	26.28039169	-15.21336651	1.0
[LeftHandPinky2]
448	36	0	0	0.4023500681	-3.310768127	-6.509257317	1.0
449	36	0	0	0.6130987406	-2.803559065	-10.44307423	1.0
450	36	0	0	0.7747578025	-2.328110933	-14.03516579	1.0
451	36	0	0	0.8807508349	-1.943951845	-16.88306999	1.0
[LeftHandPinky3]
448	21.14200211	0	0	-0.0714026019	0.9930611849	-8.288650513	1.0
449	21.14200211	0	0	-0.1267709732	1.312232733	-10.98445702	1.0
450	21.14200211	0	0	-0.2242171466	1.737400889	-14.6176796	1.0
451	21.14200211	0	0	-0.3614321053	2.201251268	-18.64622498	1.0
[LeftHandPinky4]
448	19.75699997	0	0	0	0	0	1.0
449	19.75699997	0	0	0	0	0	1.0
450	19.75699997	0	0	0	0	0	1.0
451	19.75699997	0	0	0	0	0	1.0
[RightShoulder]
448	-45.70000076	109.4620056	-26.28000069	1.646576285	2.901758194	19.19543839	1.0
449	-45.70000076	109.4620056	-26.28000069	1.769409299	3.621243477	18.2468853	1.0
450	-45.70000076	109.4620056	-26.28000069	1.95104754	4.476551056	17.84285545	1.0
451	-45.70000076	109.4620056	-26.28000069	2.01160264	4.911101818	17.25544167	1.0
[RightArm]
448	-105.9280014	-5.248000145	-22.32099915	-16.31231499	29.20185852	56.12765884	1.0
449	-105.9280014	-5.248000145	-22.32099915	-2.497986317	29.54580116	59.07950974	1.0
450	-105.9280014	-5.248000145	-22.32099915	12.51716137	30.46735954	56.86058807	1.0
451	-105.9280014	-5.248000145	-22.32099915	19.51210213	28.88698196	56.71583176	1.0
[RightForeArm]
448	-278.414978	0	0	-1.251744197e-05	39.36283493	5.631757176e-06	1.0
449	-278.414978	0	0	1.835077086e-07	32.77754211	1.294743925e-05	1.0
450	-278.414978	0	0	1.04069768e-05	36.16727829	2.040637264e-05	1.0
451	-278.414978	0	0	1.519004218e-05	52.01713943	3.66231252e-05	1.0
[RightHand]
448	-283.2879944	0	0.0009999999311	-13.00278282	14.0143652	-50.51340866	1.0
449	-283.2879944	0	0.0009999999311	-11.51170158	13.76782703	-50.28985214	1.0
450	-283.2879944	0	0.0009999999311	-3.440345049	16.0692749	-41.50408554	1.0
451	-283.2879944	0	0.0009999999311	7.604970932	16.46870422	-27.14004898	1.0
[RightHandPinky1]
448	-80.76699829	-4.885000229	-38.06000137	-0.5419458151	-2.492066145	-23.23071671	1.0
449	-80.76699829	-4.885000229	-38.06000137	-0.7073451877	-4.343677044	-27.23769379	1.0
450	-80.76699829	-4.885000229	-38.06000137	-0.5529078841	-6.070114613	-24.54350853	1.0
451	-80.76699829	-4.885000229	-38.06000137	-0.1458543688	-7.512831688	-14.88873959	1.0
[RightHandPinky2]
448	-36	0	0.0009999999311	-0.0385643132	-0.7480348349	6.182274342	1.0
449	-36	0	0.0009999999311	-0.01903970167	-0.5517380238	4.560231686	1.0
450	-36	0	0.0009999999311	-0.03722865507	-0.70920825	5.865717888	1.0
451	-36	0	0.0009999999311	-0.106412828	-1.211918712	10.04917812	1.0
[RightHandPinky3]
448	-21.14200211	0	0	-0.01798951253	0.4987659156	-4.112329006	1.0
449	-21.14200211	0	0	-0.02956911922	0.6414228082	-5.291466236	1.0
450	-21.14200211	0	0	-0.03876890615	0.7340937853	-6.058648586	1.0
451	-21.14200211	0	0	-0.04269344732	0.7693899274	-6.351145744	1.0
[RightHandPinky4]
448	-19.75699997	0	0	0	0	0	1.0
449	-19.75699997	0	0	0	0	0	1.0
450	-19.75699997	0	0	0	0	0	1.0
451	-19.75699997	0	0	0	0	0	1.0
[RightHandRing1]
448	-91.03599548	-0.4390000105	-18.65100098	-0.4567584395	3.644560337	-20.92088699	1.0
449	-91.03599548	-0.4390000105	-18.65100098	-0.5048128963	2.212206602	-22.07227516	1.0
450	-91.03599548	-0.4390000105	-18.65100098	-0.3829964995	0.6703816056	-19.13929749	1.0
451	-91.03599548	-0.4390000105	-18.65100098	-0.1462896913	-0.8187560439	-12.03523159	1.0
[RightHandRing2]
448	-31.54000092	0	0	0.002464564051	0.04050457478	-0.3345032632	1.0
449	-31.54000092	0	0	5.082406915e-06	0.001933419378	-0.01592281647	1.0
450	-31.54000092	0	0	0.0003372713109	0.002153210342	-0.01779731363	1.0
451	-31.54000092	0	0	-0.0001238791447	-0.04028336331	0.3318837285	1.0
[RightHandRing3]
448	-29.37700081	0	0	1.21333766	0.2224228978	-1.831878662	1.0
449	-29.37700081	0	0	1.042135239	0.2875292599	-2.368804693	1.0
450	-29.37700081	0	0	1.06757164	0.237896964	-1.959815383	1.0
451	-29.37700081	0	0	1.235786319	0.09740076959	-0.8020239472	1.0
[RightHandRing4]
448	-26.47500038	0	0	0	0	0	1.0
449	-26.47500038	0	0	0	0	0	1.0
450	-26.47500038	0	0	0	0	0	1.0
451	-26.47500038	0	0	0	0	0	1.0
[RightHandMiddle1]
448	-95.32500458	0	0	-0.474190712	10.60766792	-22.68421173	1.0
449	-95.32500458	0	0	-0.4182603061	9.24924469	-21.09785461	1.0
450	-95.32500458	0	0	-0.2655430138	7.482860565	-16.75055313	1.0
451	-95.32500458	0	0	-0.07727167755	5.514228344	-9.721108437	1.0
[RightHandMiddle2]
448	-36.98199844	0	0	0.002187855076	-0.1132128462	0.9288660288	1.0
449	-36.98199844	0	0	0.001503400737	0.03991042078	-0.3290598691	1.0
450	-36.98199844	0	0	-0.001050022547	-0.06471410394	0.5329334736	1.0
451	-36.98199844	0	0	-0.01191280596	-0.4070327282	3.354812384	1.0
[RightHandMiddle3]
448	-29.50900078	0	0	2.234466314	-0.1673042029	1.360886216	1.0
449	-29.50900078	0	0	2.01284337	-0.1966267675	1.602842689	1.0
450	-29.50900078	0	0	1.936253309	-0.3796955645	3.113141537	1.0
451	-29.50900078	0	0	1.923196793	-0.6547029018	5.384027481	1.0
[RightHandMiddle4]
448	-28.3390007	0	0.0009999999311	0	0	0	1.0
449	-28.3390007	0	0.0009999999311	0	0	0	1.0
450	-28.3390007	0	0.0009999999311	0	0	0	1.0
451	-28.3390007	0	0.0009999999311	0	0	0	1.0
[RightHandIndex1]
448	-91.08300018	-5.167999744	22.60099792	-0.2528841197	19.06918144	-22.41642761	1.0
449	-91.08300018	-5.167999744	22.60099792	-0.08275420219	17.45535851	-17.647995	1.0
450	-91.08300018	-5.167999744	22.60099792	0.06621026993	15.08367252	-11.22904015	1.0
451	-91.08300018	-5.167999744	22.60099792	0.142818749	12.26684475	-3.419186831	1.0
[RightHandIndex2]
448	-36.76399994	0	0	-0.1370440573	-1.39473629	11.55187035	1.0
449	-36.76399994	0	0	-0.07203721255	-1.022358537	8.44728756	1.0
450	-36.76399994	0	0	-0.07255152613	-0.9984824657	8.255097389	1.0
451	-36.76399994	0	0	-0.1166359112	-1.268285275	10.50802612	1.0
[RightHandIndex3]
448	-28.83100128	0	0	-0.01401639264	-0.4881555438	4.021738052	1.0
449	-28.83100128	0	0	-0.03195361048	-0.6612348557	5.455434322	1.0
450	-28.83100128	0	0	-0.07159245759	-0.9864690304	8.156272888	1.0
451	-28.83100128	0	0	-0.1344957203	-1.361032248	11.28660011	1.0
[RightHandIndex4]
448	-23.92700005	0	0	0	0	0	1.0
449	-23.92700005	0	0	0	0	0	1.0
450	-23.92700005	0	0	0	0	0	1.0
451	-23.92700005	0	0	0	0	0	1.0
[RightHandThumb1]
448	-24.64799881	-15.72700024	26.82600021	-1.249280214	-10.71784306	-19.44644547	1.0
449	-24.64799881	-15.72700024	26.82600021	0.3569694161	-11.31252289	-17.95036888	1.0
450	-24.64799881	-15.72700024	26.82600021	2.507941961	-12.34548855	-16.62908173	1.0
451	-24.64799881	-15.72700024	26.82600021	4.979728222	-13.67599773	-15.54393673	1.0
[RightHandThumb2]
448	-32.29800034	-18.64699936	18.64699936	5.175126553	-11.65187931	-1.662837505	1.0
449	-32.29800034	-18.64699936	18.64699936	4.950648308	-10.95367813	-1.367788672	1.0
450	-32.29800034	-18.64699936	18.64699936	4.32118082	-8.783799171	-0.6481738091	1.0
451	-32.29800034	-18.64699936	18.64699936	3.371663094	-5.321507931	0.3688182533	1.0
[RightHandThumb3]
448	-26.52600098	-15.31399918	15.31399918	-0.1120168641	-1.925199628	-2.38198638	1.0
449	-26.52600098	-15.31399918	15.31399918	-0.4271636903	-1.315280795	-2.42292285	1.0
450	-26.52600098	-15.31399918	15.31399918	-1.097605944	-0.1263061464	-2.484462023	1.0
451	-26.52600098	-15.31399918	15.31399918	-2.070375443	1.548335671	-2.590086699	1.0
[RightHandThumb4]
448	-19.54599953	-11.28499985	11.28499985	0	0	0	1.0
449	-19.54599953	-11.28499985	11.28499985	0	0	0	1.0
450	-19.54599953	-11.28499985	11.28499985	0	0	0	1.0
451	-19.54599953	-11.28499985	11.28499985	0	0	0	1.0
[LeftUpLeg]
448	82.07800293	-67.51699829	-15.99599934	0.05481794477	-0.06945516914	-11.13870907	1.0
449	82.07800293	-67.51699829	-15.99599934	0.471724838	-0.5199557543	-9.426617622	1.0
450	82.07800293	-67.51699829	-15.99599934	-0.2059895247	-3.617157936	-4.785840988	1.0
451	82.07800293	-67.51699829	-15.99599934	-2.862719774	-5.52753067	1.045863986	1.0
[LeftLeg]
448	0	-443.7049866	2.845999956	33.81590271	9.178191185	-6.788730145	1.0
449	0	-443.7049866	2.845999956	30.29767227	9.044333458	-6.28832531	1.0
450	0	-443.7049866	2.845999956	29.22628212	11.30008984	-3.53698802	1.0
451	0	-443.7049866	2.845999956	33.41532898	12.17096329	-1.919148922	1.0
[LeftFoot]
448	0	-444.2789917	-29.8219986	-25.08471489	5.153258801	3.371165752	1.0
449	0	-444.2789917	-29.8219986	-24.14877892	5.869423389	2.700447559	1.0
450	0	-444.2789917	-29.8219986	-22.50016785	6.409984589	0.4166711569	1.0
451	0	-444.2789917	-29.8219986	-18.22849846	7.127026081	-1.941866875	1.0
[LeftToeBase]
448	0	-87.28699493	107.1060028	-2.609175444	-6.277841294e-06	6.241496635e-07	1.0
449	0	-87.28699493	107.1060028	-4.134986877	-2.387994527e-06	1.544350312e-06	1.0
450	0	-87.28699493	107.1060028	-5.864719868	0.002022121102	0.01085904427	1.0
451	0	-87.28699493	107.1060028	-9.23600769	-6.501129974e-06	-6.094128224e-08	1.0
[RightUpLeg]
448	-82.07800293	-67.51699829	-15.99599934	-30.2339592	-13.57685089	-17.27812767	1.0
449	-82.07800293	-67.51699829	-15.99599934	-28.87435913	-15.01563644	-16.30061913	1.0
450	-82.07800293	-67.51699829	-15.99599934	-23.61260414	-13.54202747	-11.17256546	1.0
451	-82.07800293	-67.51699829	-15.99599934	-15.26899719	-10.77164459	-5.208129883	1.0
[RightLeg]
448	0	-443.7049866	2.861999989	60.94088364	-6.054523468	-7.90382576	1.0
449	0	-443.7049866	2.861999989	63.88873291	-5.718316555	-8.195370674	1.0
450	0	-443.7049866	2.861999989	59.99341202	-6.308810711	-7.8294487	1.0
451	0	-443.7049866	2.861999989	48.91482162	-7.02371788	-7.189426422	1.0
[RightFoot]
448	0	-444.2770081	-29.83799934	-14.26701832	-6.943399429	6.040919781	1.0
449	0	-444.2770081	-29.83799934	-8.159787178	-4.461754799	5.355438709	1.0
450	0	-444.2770081	-29.83799934	-2.43352747	-4.929837227	6.945958138	1.0
451	0	-444.2770081	-29.83799934	-4.136832237	-4.140446186	12.80006886	1.0
[RightToeBase]
448	0	-87.28699493	107.1060028	5.441914082	-0.01259932667	-0.2063390166	1.0
449	0	-87.28699493	107.1060028	2.073867083	0.1030076891	1.345867038	1.0
450	0	-87.28699493	107.1060028	-7.579861164	0.05824083835	2.156087399	1.0
451	0	-87.28699493	107.1060028	-15.80377102	-0.6022042632	-2.723706722	1.0
[EndOfFile]
